<?xml version="1.0" encoding="UTF-8" standalone="no"?>
<!-- Created with Inkscape (http://www.inkscape.org/) -->

<svg
   xmlns:dc="http://purl.org/dc/elements/1.1/"
   xmlns:cc="http://creativecommons.org/ns#"
   xmlns:rdf="http://www.w3.org/1999/02/22-rdf-syntax-ns#"
   xmlns:svg="http://www.w3.org/2000/svg"
   xmlns="http://www.w3.org/2000/svg"
   xmlns:sodipodi="http://sodipodi.sourceforge.net/DTD/sodipodi-0.dtd"
   xmlns:inkscape="http://www.inkscape.org/namespaces/inkscape"
   version="1.1"
   id="svg2"
   width="266.66666"
   height="266.66666"
   viewBox="0 0 266.66666 266.66666"
   sodipodi:docname="drown.svg"
   inkscape:version="0.92.4 (5da689c313, 2019-01-14)">
  <metadata
     id="metadata8">
    <rdf:RDF>
      <cc:Work
         rdf:about="">
        <dc:format>image/svg+xml</dc:format>
        <dc:type
           rdf:resource="http://purl.org/dc/dcmitype/StillImage" />
        <dc:title></dc:title>
      </cc:Work>
    </rdf:RDF>
  </metadata>
  <defs
     id="defs6" />
  <sodipodi:namedview
     pagecolor="#ffffff"
     bordercolor="#666666"
     borderopacity="1"
     objecttolerance="10"
     gridtolerance="10"
     guidetolerance="10"
     inkscape:pageopacity="0"
     inkscape:pageshadow="2"
     inkscape:window-width="2171"
     inkscape:window-height="1327"
     id="namedview4"
     showgrid="false"
     inkscape:object-paths="false"
     inkscape:zoom="0.88500003"
     inkscape:cx="67.231636"
     inkscape:cy="133.33333"
     inkscape:window-x="0"
     inkscape:window-y="0"
     inkscape:window-maximized="0"
     inkscape:current-layer="svg2" />
  <path
     style="fill:#000000;stroke-width:1.33333325"
     d="M 115.59322,213.36867 V 167.98029 L 96.515227,140.36868 c -10.49289,-15.18639 -19.5283,-28.36162 -20.07869,-29.27828 -0.75507,-1.25757 0.91708,-1.66667 6.81228,-1.66667 h 7.81299 l 15.265703,18.65705 15.26571,18.65704 14.86817,0.009 14.86819,0.009 15.13181,-18.63755 15.13183,-18.63753 7.66667,-0.0291 c 4.21666,-0.016 7.66666,0.27527 7.66666,0.64731 0,0.37205 -8.7,13.24727 -19.33333,28.61161 l -19.33333,27.93583 v 46.05505 46.05505 h -7.93959 c -9.42361,0 -8.31705,3.16935 -11.3696,-32.5642 -1.12279,-13.14365 -2.25021,-24.10632 -2.50539,-24.36148 -0.49245,-0.49245 -1.10623,5.74951 -3.6637,37.25901 l -1.59625,19.66724 h -7.79607 -7.79607 z m 13.33402,-73.44287 c -15.72443,-6.27019 -17.93202,-27.07808 -3.96942,-37.41428 12.90688,-9.554684 32.48156,0.96722 32.48156,17.45967 0,14.73523 -15.09963,25.3029 -28.51214,19.95461 z m -2.56505,-51.287265 c -3.22798,-2.716164 -4.1023,-4.509704 -4.1023,-8.415251 0,-12.68613 16.09637,-16.510978 21.72744,-5.162911 2.1821,4.397502 2.21733,5.247842 0.39782,9.602534 -3.28024,7.850709 -11.31211,9.622439 -18.02296,3.975628 z m 10.56436,-6.548141 c 1.32426,-1.595622 1.32426,-2.404379 0,-4 -3.33195,-4.014753 -8.08129,-0.942977 -6.1845,4 0.42212,1.1 1.61284,2 2.64606,2 1.03323,0 2.62552,-0.9 3.53844,-2 z m 20.5175,-12.640092 c -8.4808,-3.426627 -11.17542,-15.329885 -5.10379,-22.545601 8.53799,-10.146823 24.61044,-4.607276 24.98513,8.611404 0.30927,10.910409 -9.81073,18.003186 -19.88134,13.934197 z M 168.3825,59.423728 c 2.02321,-3.087828 2.02321,-3.578839 0,-6.666667 -3.86839,-5.903898 -11.45595,-3.696148 -11.45595,3.333333 0,7.029482 7.58756,9.237232 11.45595,3.333334 z M 32.148697,31.529311 c -2.26115,-0.984521 -7.23118,-4.561036 -11.0445,-7.94781 -3.81333,-3.386775 -7.8133,-6.157772 -8.88882,-6.157772 -1.4577,0 -1.95549,-1.697066 -1.95549,-6.666667 0,-5.0991502 0.48032,-6.6666662 2.04282,-6.6666662 4.16818,0 11.71512,4.134645 18.21675,9.9801692 9.05514,8.141346 13.09238,8.141346 22.14752,0 14.73012,-13.24364794 25.78903,-13.24364794 40.51915,0 9.055143,8.141346 13.092383,8.141346 22.147513,0 14.73013,-13.24364794 25.78903,-13.24364794 40.51915,0 9.05514,8.141346 13.09239,8.141346 22.14752,0 14.73012,-13.24364794 25.78903,-13.24364794 40.51915,0 9.05513,8.141346 13.09238,8.141346 22.14752,0 6.50162,-5.8455242 14.04857,-9.9801692 18.21674,-9.9801692 1.56251,0 2.04283,1.567516 2.04283,6.6666662 0,4.969601 -0.49779,6.666667 -1.95549,6.666667 -1.07552,0 -5.07844,2.773617 -8.89538,6.163594 -14.96225,13.288607 -26.00268,13.288607 -40.96493,0 -9.17825,-8.151582 -12.52348,-8.151582 -21.70173,0 -7.96488,7.073937 -13.7172,9.836405 -20.48247,9.836405 -6.76526,0 -12.51758,-2.762468 -20.48246,-9.836405 -9.17826,-8.151582 -12.52349,-8.151582 -21.70174,0 -14.96225,13.288607 -26.002673,13.288607 -40.964933,0 -9.17825,-8.151582 -12.52348,-8.151582 -21.70173,0 -10.88932,9.671256 -20.25005,12.155396 -29.92699,7.941988 z"
     id="path12"
     inkscape:connector-curvature="0" />
</svg>
