<?xml version="1.0" encoding="iso-8859-1"?>
<!-- Generator: Adobe Illustrator 18.1.1, SVG Export Plug-In . SVG Version: 6.00 Build 0)  -->
<svg version="1.1" id="Capa_1" xmlns="http://www.w3.org/2000/svg" xmlns:xlink="http://www.w3.org/1999/xlink" x="0px" y="0px"
	 viewBox="0 0 612 612" style="enable-background:new 0 0 612 612;" xml:space="preserve">
<g>
	<g>
		<g>
			<g>
				<path d="M342.816,75.023c-6.756-3.277-14.792-2.409-20.687,2.243l-151.04,119.044h-23.954h-14.181H91.109
					C40.871,196.309,0,245.515,0,306s40.871,109.689,91.109,109.689h41.844h14.181h23.954l151.04,119.047
					c3.523,2.778,7.813,4.208,12.136,4.208c2.909,0,5.833-0.647,8.551-1.965c6.757-3.28,11.047-10.129,11.047-17.636V92.658
					C353.863,85.15,349.573,78.299,342.816,75.023z M113.353,376.488H91.109c-28.622,0-51.908-31.621-51.908-70.488
					s23.286-70.488,51.908-70.488h22.244V376.488z M314.661,478.936l-124.645-98.241c-3.456-2.725-7.729-4.208-12.133-4.208h-25.329
					V235.511h25.329c4.402,0,8.677-1.483,12.133-4.208l124.645-98.241V478.936z"/>
			</g>
			<path d="M530.766,306l75.492-75.491c7.656-7.657,7.656-20.066,0-27.72c-7.657-7.656-20.066-7.656-27.72,0l-75.492,75.491
				l-75.491-75.491c-7.654-7.656-20.065-7.656-27.72,0c-7.654,7.654-7.654,20.063,0,27.72L475.325,306l-75.492,75.492
				c-7.654,7.654-7.654,20.065,0,27.72c3.829,3.827,8.843,5.741,13.859,5.741c5.015,0,10.034-1.914,13.859-5.741l75.492-75.492
				l75.492,75.492c3.829,3.827,8.843,5.741,13.859,5.741c5.015,0,10.034-1.914,13.859-5.741c7.656-7.656,7.656-20.065,0-27.72
				L530.766,306z"/>
		</g>
	</g>
</g>
<g>
</g>
<g>
</g>
<g>
</g>
<g>
</g>
<g>
</g>
<g>
</g>
<g>
</g>
<g>
</g>
<g>
</g>
<g>
</g>
<g>
</g>
<g>
</g>
<g>
</g>
<g>
</g>
<g>
</g>
</svg>
