<?xml version="1.0" encoding="utf-8"?><svg xml:space="preserve" viewBox="0 0 100 100" y="0" x="0" xmlns="http://www.w3.org/2000/svg" id="圖層_1" version="1.1" width="128px" height="128px" xmlns:xlink="http://www.w3.org/1999/xlink" style="width:100%;height:100%;background-color:rgb(255, 255, 255);animation-play-state:paused" ><g class="ldl-scale" style="transform-origin:50% 50% 0px;transform:rotate(0deg) scale(0.8);animation-play-state:paused" ><path d="M50 10l4.3 7.6 6.1-6.2 2.1 8.4 7.5-4.4-.1 8.6 8.4-2.3-2.3 8.4 8.6-.1-4.4 7.5 8.4 2.1-6.2 6.1L90 50l-7.6 4.3 6.2 6.1-8.4 2.1 4.4 7.5-8.6-.1 2.3 8.4-8.4-2.3.1 8.6-7.5-4.4-2.1 8.4-6.1-6.2L50 90l-4.3-7.6-6.1 6.2-2.1-8.4-7.5 4.4.1-8.6-8.4 2.3 2.3-8.4-8.6.1 4.4-7.5-8.4-2.1 6.2-6.1L10 50l7.6-4.3-6.2-6.1 8.4-2.1-4.4-7.5 8.6.1-2.3-8.4 8.4 2.3-.1-8.6 7.5 4.4 2.1-8.4 6.1 6.2z" fill="#f8b26a" style="fill:rgb(248, 178, 106);animation-play-state:paused" ></path>
<circle fill="#ffdc6c" r="28.6" cy="50" cx="50.2" style="fill:rgb(255, 220, 108);animation-play-state:paused" ></circle>
<metadata xmlns:d="https://loading.io/stock/" style="animation-play-state:paused" ><d:name style="animation-play-state:paused" >sun</d:name>
<d:tags style="animation-play-state:paused" >burn,scorch,flame,hot,warm,light,bright,solar,drought,sun,weather</d:tags>
<d:license style="animation-play-state:paused" >pro</d:license>
<d:slug style="animation-play-state:paused" >ooq69w</d:slug></metadata></g><!-- generated by https://loading.io/ --></svg>