<?xml version="1.0" encoding="utf-8"?><svg xml:space="preserve" viewBox="0 0 100 100" y="0" x="0" xmlns="http://www.w3.org/2000/svg" id="圖層_1" version="1.1" width="128px" height="128px" xmlns:xlink="http://www.w3.org/1999/xlink" style="width:100%;height:100%;background-color:rgb(255, 255, 255);animation-play-state:paused" ><g class="ldl-scale" style="transform-origin:50% 50% 0px;transform:rotate(0deg) scale(0.8);animation-play-state:paused" ><path d="M76.572 23.428L10 90" stroke-miterlimit="10" stroke-linecap="round" stroke-width="5" stroke="#333" fill="none" style="stroke:rgb(51, 51, 51);animation-play-state:paused" ></path>
<path fill="#983733" d="M26.143 24.238c5.072 5.072 7.755 11.11 7.274 15.437-.123 1.111.988 2.222 2.099 2.099 4.327-.48 10.365 2.203 15.437 7.274s7.755 11.11 7.274 15.437c-.123 1.111.988 2.222 2.099 2.099 4.327-.48 10.365 2.203 15.437 7.274 3.469 3.469 5.815 7.388 6.796 10.902.429 1.537 2.467 2.062 3.111.805 8.808-17.217 4.044-41.15-13.019-58.213S31.654 5.524 14.436 14.332c-1.258.643-.733 2.682.805 3.111 3.514.981 7.432 3.326 10.902 6.795z" style="fill:rgb(152, 55, 51);animation-play-state:paused" ></path>
<metadata xmlns:d="https://loading.io/stock/" style="animation-play-state:paused" ><d:name style="animation-play-state:paused" >umbrella</d:name>
<d:tags style="animation-play-state:paused" >protect,help,shelter,guard,insurance,rain,weather,umbrella,business</d:tags>
<d:license style="animation-play-state:paused" >pro</d:license>
<d:slug style="animation-play-state:paused" >409iom</d:slug></metadata></g><!-- generated by https://loading.io/ --></svg>